<?xml version="1.0" standalone="no"?>
<!DOCTYPE svg PUBLIC "-//W3C//DTD SVG 20010904//EN"
 "http://www.w3.org/TR/2001/REC-SVG-20010904/DTD/svg10.dtd">
<svg version="1.0" xmlns="http://www.w3.org/2000/svg"
 width="405.000000pt" height="405.000000pt" viewBox="0 0 405.000000 405.000000"
 preserveAspectRatio="xMidYMid meet">
<metadata>
Created by potrace 1.11, written by Peter Selinger 2001-2013
</metadata>
<g transform="translate(0.000000,405.000000) scale(0.100000,-0.100000)"
fill="#000000" stroke="none">
<path d="M1940 2857 c17 -15 44 -30 60 -33 38 -8 38 -43 0 -45 -230 -10 -433
-98 -585 -253 -133 -136 -219 -321 -227 -492 l-3 -68 840 0 840 -1 1 33 c3
105 -48 271 -120 386 -104 167 -265 292 -453 351 -76 25 -103 30 -195 41 -29
4 -56 8 -60 10 -15 9 5 33 31 39 16 3 40 18 54 33 l26 27 -120 0 -121 1 32
-29z"/>
<path d="M560 1770 c-1 -30 -4 -75 -7 -100 -13 -92 -10 -125 11 -125 15 0 19
9 22 42 4 60 34 111 56 97 14 -9 9 -24 -16 -47 l-24 -22 19 -40 c24 -49 53
-80 68 -71 8 5 6 16 -7 34 -37 55 -42 78 -21 95 25 22 24 59 -2 75 -18 11 -24
9 -51 -20 -18 -18 -29 -28 -26 -23 3 6 8 33 12 61 5 43 2 56 -14 75 l-19 24
-1 -55z"/>
<path d="M2919 1814 c0 -5 -2 -31 -4 -59 -1 -27 -6 -87 -10 -132 -8 -81 -7
-83 14 -83 18 0 21 6 21 38 0 40 27 103 48 110 6 2 12 -4 12 -13 0 -24 -19
-57 -30 -50 -5 3 -11 1 -15 -5 -3 -5 -2 -10 3 -10 5 0 15 -18 22 -40 14 -41
52 -76 71 -64 7 4 8 9 1 13 -5 3 -19 25 -31 49 l-21 42 20 28 c38 51 -8 101
-52 57 l-24 -24 4 63 c3 48 0 65 -12 75 -9 7 -16 10 -17 5z"/>
<path d="M3089 1769 c0 -30 -3 -76 -7 -104 -11 -95 -9 -120 12 -120 15 0 19 8
21 42 3 47 29 97 48 90 14 -4 15 -20 5 -67 -9 -44 -2 -70 21 -70 18 0 20 9 23
110 2 51 -2 60 -24 60 -12 0 -35 -12 -51 -27 -17 -16 -27 -23 -24 -17 4 6 9
36 11 66 4 46 2 59 -14 73 -20 18 -20 17 -21 -36z"/>
<path d="M169 1738 c0 -29 -2 -60 -3 -68 -2 -8 -6 -39 -10 -68 -7 -60 -1 -66
71 -66 46 -1 79 22 84 59 4 27 -18 65 -38 65 -11 0 -9 5 9 20 58 45 30 107
-43 97 -22 -3 -42 -1 -45 4 -14 23 -24 5 -25 -43z m101 -14 c0 -17 -10 -31
-32 -44 -18 -11 -27 -20 -20 -20 17 0 52 -37 52 -55 0 -24 -36 -54 -58 -49
-20 6 -21 15 -7 129 3 33 11 63 17 66 20 13 48 -3 48 -27z"/>
<path d="M1140 1726 c0 -36 -1 -67 -1 -68 -1 -2 -5 -27 -9 -55 -7 -59 0 -66
70 -66 89 0 142 98 104 189 -17 41 -42 55 -91 53 -21 -1 -46 1 -55 5 -16 7
-18 1 -18 -58z m126 -20 c19 -81 -16 -146 -78 -146 -20 0 -20 4 -15 83 4 45 7
87 7 94 0 6 8 13 18 15 30 7 61 -13 68 -46z"/>
<path d="M2290 1780 c-14 -3 -31 -17 -39 -32 -20 -35 -2 -75 50 -111 30 -20
39 -34 37 -50 -2 -17 -10 -22 -33 -22 -27 0 -30 4 -33 33 -4 37 -12 40 -37 12
-17 -18 -17 -21 -1 -45 16 -24 22 -27 78 -29 35 -2 67 23 73 56 4 22 -3 33
-44 68 -27 23 -52 49 -56 58 -9 23 18 45 45 37 18 -6 21 -12 16 -36 -4 -21 -2
-29 9 -29 13 0 35 29 35 47 -1 30 -56 54 -100 43z"/>
<path d="M1682 1763 c2 -10 13 -19 26 -21 17 -3 22 2 22 17 0 16 -6 21 -26 21
-19 0 -25 -5 -22 -17z"/>
<path d="M2453 1744 c0 -14 -10 -34 -22 -45 -26 -25 -27 -32 -1 -24 18 6 20 3
15 -17 -18 -82 -15 -112 13 -127 15 -8 17 -3 18 43 1 77 7 100 28 106 26 7 34
32 10 28 -13 -2 -20 4 -22 20 -2 12 -12 26 -21 32 -16 8 -18 5 -18 -16z"/>
<path d="M1892 1717 c-16 -18 -34 -103 -36 -164 -1 -39 -7 -58 -23 -74 -25
-25 -43 -18 -43 17 0 22 -3 23 -20 14 -40 -22 -14 -70 38 -70 29 0 69 43 81
86 12 43 27 204 18 204 -2 0 -9 -6 -15 -13z"/>
<path d="M894 1697 c2 -12 0 -47 -4 -77 -8 -64 -4 -82 19 -78 20 4 33 90 20
135 -12 37 -41 55 -35 20z"/>
<path d="M1553 1708 c-44 -21 -39 -69 12 -102 27 -18 33 -41 12 -49 -20 -8
-41 9 -34 27 8 20 -16 22 -32 3 -32 -39 68 -72 105 -35 22 22 12 61 -21 78
-29 16 -43 49 -24 61 19 11 32 0 26 -23 -4 -14 -1 -18 11 -16 9 2 18 13 20 26
3 16 -4 25 -23 32 -14 5 -27 10 -28 9 -1 0 -12 -5 -24 -11z"/>
<path d="M1687 1713 c-12 -20 -17 -135 -7 -153 17 -32 30 -23 30 23 0 23 4 57
9 75 7 24 6 35 -5 47 -17 17 -21 18 -27 8z"/>
<path d="M1960 1675 c0 -27 -3 -67 -6 -87 -5 -30 -3 -39 10 -44 23 -9 27 -3
33 53 4 48 32 91 50 80 6 -4 7 -26 4 -49 -6 -39 -6 -49 -2 -77 0 -5 9 -11 19
-13 16 -5 19 2 20 51 2 31 3 63 4 71 5 58 -27 68 -75 23 -17 -16 -27 -23 -24
-17 4 7 -2 23 -13 35 l-19 24 -1 -50z"/>
<path d="M3286 1697 c-47 -48 -44 -137 6 -156 58 -21 113 31 112 106 -2 63
-43 84 -88 46 -20 -17 -20 -17 -7 0 22 28 5 32 -23 4z m78 -24 c8 -27 0 -81
-14 -98 -19 -23 -50 -19 -52 8 -4 61 17 107 48 107 7 0 15 -8 18 -17z"/>
<path d="M3546 1713 c-3 -4 -6 -22 -6 -42 0 -39 -35 -106 -50 -96 -5 3 -7 20
-4 38 12 75 9 97 -16 97 -16 0 -20 -7 -21 -37 -1 -21 -3 -51 -4 -68 -5 -79 54
-88 84 -13 10 23 10 23 10 1 1 -32 11 -53 26 -53 7 0 11 13 10 36 -1 20 1 50
4 67 4 18 5 39 3 49 -3 17 -26 31 -36 21z"/>
<path d="M3658 1706 c-37 -19 -35 -57 7 -94 38 -35 43 -47 22 -55 -20 -8 -41
9 -34 27 8 20 -16 22 -32 3 -16 -20 7 -45 46 -50 32 -5 73 21 73 46 -1 17 -31
52 -52 60 -17 6 -24 37 -12 50 13 13 34 -6 28 -25 -5 -16 -2 -19 13 -16 11 2
18 12 18 27 0 30 -41 45 -77 27z"/>
<path d="M386 1694 c-24 -17 -47 -81 -41 -112 9 -51 54 -61 91 -21 17 19 17
19 28 -3 19 -37 31 -30 31 20 0 26 3 65 5 87 4 36 3 40 -18 43 -12 2 -21 0
-20 -5 1 -4 -1 -31 -5 -60 -5 -36 -14 -57 -29 -67 -27 -19 -38 -12 -38 25 0
36 15 66 44 91 l21 17 -27 -1 c-15 -1 -34 -7 -42 -14z"/>
<path d="M736 1679 c-47 -55 -31 -126 31 -142 24 -5 73 25 73 45 0 6 -8 4 -18
-5 -22 -20 -46 -22 -59 -4 -18 24 -9 40 27 43 19 2 40 11 47 20 48 66 -48 106
-101 43z m74 -3 c0 -19 -27 -46 -45 -46 -15 0 -11 23 8 48 13 16 37 15 37 -2z"/>
<path d="M950 1691 c-14 -28 -12 -36 5 -21 13 10 15 9 15 -9 0 -12 6 -21 15
-21 16 0 31 43 20 59 -10 18 -44 12 -55 -8z"/>
<path d="M1387 1699 c-25 -15 -45 -60 -42 -97 3 -39 19 -60 48 -64 23 -4 77
20 77 34 0 11 -7 10 -29 -4 -26 -16 -53 -3 -49 23 2 16 11 23 31 25 41 4 58
22 55 58 -3 28 -7 31 -38 33 -19 2 -43 -2 -53 -8z m51 -30 c-3 -24 -33 -48
-44 -36 -4 4 -2 18 4 32 14 31 45 34 40 4z"/>
<path d="M1789 1681 c-16 -16 -30 -39 -30 -50 -1 -12 -2 -27 -3 -33 -4 -25 17
-58 36 -58 23 0 58 17 58 29 0 4 -10 7 -22 7 -19 -1 -24 5 -26 32 -3 27 3 39
33 68 l36 34 -26 0 c-16 0 -38 -12 -56 -29z"/>
<path d="M2566 1685 c-34 -34 -40 -103 -11 -131 21 -21 79 -17 100 6 16 17 16
20 2 20 -9 0 -19 -4 -22 -10 -10 -16 -42 -12 -49 6 -12 30 -6 39 26 40 19 1
38 10 49 23 46 57 -42 99 -95 46z m68 -3 c8 -13 -23 -52 -40 -52 -17 0 -17 1
-4 34 9 25 33 35 44 18z"/>
<path d="M2747 1696 c-43 -35 -63 -116 -35 -144 18 -18 55 -14 77 9 19 21 19
21 25 1 4 -11 13 -23 21 -26 11 -4 14 6 15 42 1 26 2 65 3 87 2 30 -2 40 -15
43 -14 3 -18 -3 -18 -27 0 -39 -27 -108 -45 -115 -15 -5 -32 13 -29 32 1 6 2
21 3 31 0 11 14 33 31 49 l29 30 -24 0 c-14 0 -31 -6 -38 -12z"/>
<path d="M3799 1681 c-54 -54 -31 -143 37 -143 14 0 36 9 47 21 12 11 16 21
10 21 -7 0 -15 -4 -18 -10 -10 -17 -44 -11 -55 9 -15 30 -12 43 9 36 29 -9 70
12 77 40 15 58 -57 76 -107 26z m71 -11 c0 -16 -26 -40 -44 -40 -11 0 -6 36 6
48 18 18 38 14 38 -8z"/>
<path d="M1038 1279 c4 -3 35 -16 70 -29 44 -16 72 -34 90 -57 l27 -33 798 0
797 0 38 38 c25 25 59 45 102 59 36 12 61 23 55 23 -42 5 -1982 4 -1977 -1z"/>
</g>
</svg>
